<?xml version="1.0" standalone="no"?><!DOCTYPE svg PUBLIC "-//W3C//DTD SVG 1.1//EN" "http://www.w3.org/Graphics/SVG/1.1/DTD/svg11.dtd"><svg t="1594049045442" class="icon" viewBox="0 0 2364 1024" version="1.1" xmlns="http://www.w3.org/2000/svg" p-id="23137" xmlns:xlink="http://www.w3.org/1999/xlink" width="1846.875" height="800"><defs><style type="text/css"></style></defs><path d="M1807.576321 333.911882h-4.452158a26.712951 26.712951 0 0 0 0-53.425901h-44.521584a26.712951 26.712951 0 0 1 0-53.425901h160.277703a26.712951 26.712951 0 0 1 0 53.425901 26.712951 26.712951 0 0 0 0 53.425901h102.399644a26.712951 26.712951 0 0 1 0 53.425901h-213.703605a26.712951 26.712951 0 0 1 0-53.425901zM471.928793 774.675566h-4.452158a26.712951 26.712951 0 0 0 0-53.425901H422.955051a26.712951 26.712951 0 0 1 0-53.425901h160.277703a26.712951 26.712951 0 0 1 0 53.425901 26.712951 26.712951 0 0 0 0 53.425901h102.399644a26.712951 26.712951 0 0 1 0 53.425901h-213.703605a26.712951 26.712951 0 0 1 0-53.425901zM1487.020915 716.797507a26.712951 26.712951 0 0 0 0 53.425901h-4.452159a26.712951 26.712951 0 0 1 0 53.425901h-106.851802a26.712951 26.712951 0 0 1 0-53.425901 26.712951 26.712951 0 0 0 0-53.425901h-173.634179a26.712951 26.712951 0 0 0 0 53.425901h80.138852a26.712951 26.712951 0 0 1 0 53.425901h-200.347129a26.712951 26.712951 0 0 1 0-53.425901h8.904317a26.712951 26.712951 0 0 0 0-53.425901h-102.399644a26.712951 26.712951 0 0 1 0-53.425901h276.033822a26.712951 26.712951 0 0 0 0-53.425901h-44.521584a26.712951 26.712951 0 0 1 0-53.425902h200.347129a26.712951 26.712951 0 0 1 0 53.425902 26.712951 26.712951 0 0 0 0 53.425901h124.660436a26.712951 26.712951 0 0 1 0 53.425901h-57.878059z" p-id="23138" fill="#cfd6de"></path><path d="M1549.351133 511.998219m-293.842457 0a293.842456 293.842456 0 1 0 587.684913 0 293.842456 293.842456 0 1 0-587.684913 0Z" p-id="23139" fill="#cfd6de"></path><path d="M1538.220737 500.867823m-255.99911 0a255.99911 255.99911 0 1 0 511.998219 0 255.99911 255.99911 0 1 0-511.998219 0Z" p-id="23140" fill="#cfd6de"></path><path d="M1273.081346 611.797802C1219.802366 654.404959 1192.532896 693.891152 1203.413971 720.817806c22.563539 55.85678 200.725563 36.547769 397.929468-43.128059 197.203905-79.675827 338.773639-189.546193 316.205648-245.402972-9.215968-22.81286-44.396924-33.088441-96.228952-31.828481l6.157335 7.30154c44.290072-0.55652 73.950351 8.427936 81.799506 27.848251 20.724797 51.293317-118.64557 155.972466-311.290465 233.809552-192.644895 77.832634-365.61125 99.345463-386.336047 48.047694-9.812557-24.282072 16.250378-60.527094 66.862515-100.226991l-5.431633-5.440538z" p-id="23141" fill="#cfd6de"></path><path d="M2045.766797 184.764575m-24.486871 0a24.486871 24.486871 0 1 0 48.973743 0 24.486871 24.486871 0 1 0-48.973743 0Z" p-id="23142" fill="#cfd6de"></path><path d="M2017.949711 200.347129A35.617267 35.617267 0 1 1 2052.445035 227.06008v-8.904317a26.712951 26.712951 0 1 0-25.194765-17.808634h-9.300559z" p-id="23143" fill="#cfd6de"></path><path d="M382.885625 191.442812m-31.165109 0a31.165109 31.165109 0 1 0 62.330218 0 31.165109 31.165109 0 1 0-62.330218 0Z" p-id="23144" fill="#cfd6de"></path><path d="M440.763684 182.538496h-8.904317a40.069426 40.069426 0 1 0-16.820254 32.634321l5.814519 6.789541A48.751135 48.751135 0 0 1 391.789942 231.512238C364.743079 231.512238 342.816199 209.585358 342.816199 182.538496S364.743079 133.564753 391.789942 133.564753s48.973743 21.92688 48.973742 48.973743z" p-id="23145" fill="#cfd6de"></path><path d="M1865.454381 725.701824m-22.260792 0a22.260792 22.260792 0 1 0 44.521584 0 22.260792 22.260792 0 1 0-44.521584 0Z" p-id="23146" fill="#cfd6de"></path><path d="M1841.332587 743.510457a35.617267 35.617267 0 1 1 33.026111 22.260792v-8.904316a26.712951 26.712951 0 1 0-23.137867-13.356476h-9.888244z" p-id="23147" fill="#cfd6de"></path><path d="M1262.186914 242.642634m-11.130396 0a11.130396 11.130396 0 1 0 22.260792 0 11.130396 11.130396 0 1 0-22.260792 0Z" p-id="23148" fill="#cfd6de"></path><path d="M1760.828658 425.18113m-11.130396 0a11.130396 11.130396 0 1 0 22.260792 0 11.130396 11.130396 0 1 0-22.260792 0Z" p-id="23149" fill="#cfd6de"></path><path d="M1511.507786 754.640853m-15.582554 0a15.582554 15.582554 0 1 0 31.165109 0 15.582554 15.582554 0 1 0-31.165109 0Z" p-id="23150" fill="#cfd6de"></path><path d="M2052.445035 908.240319m-17.808634 0a17.808634 17.808634 0 1 0 35.617268 0 17.808634 17.808634 0 1 0-35.617268 0Z" p-id="23151" fill="#cfd6de"></path><path d="M1442.49933 445.215843c-31.966498 0-57.87806-25.911562-57.878059-57.87806s25.911562-57.87806 57.878059-57.878059 57.87806 25.911562 57.87806 57.878059-25.911562 57.87806-57.87806 57.87806z m0-8.904317c27.046862 0 48.973743-21.92688 48.973743-48.973743s-21.92688-48.973743-48.973743-48.973743-48.973743 21.92688-48.973742 48.973743 21.92688 48.973743 48.973742 48.973743zM1464.746766 478.170719A93.722387 93.722387 0 0 1 1442.49933 480.83311c-29.78494 0-56.319804-13.930804-73.442805-35.630624l6.669333-5.930275C1391.201561 459.151099 1415.358973 471.928793 1442.49933 471.928793c7.01215 0 13.823952-0.854814 20.33746-2.462043l1.914428 8.703969z m22.122775-8.516979l-3.48604-8.245397C1509.441985 446.996706 1527.090341 419.228594 1527.090341 387.337783c0-9.273846-1.491473-18.200424-4.251812-26.548221l8.632735-2.261696A93.428545 93.428545 0 0 1 1535.994657 387.337783c0 35.577198-19.874435 66.515247-49.125116 82.320409zM1573.838004 569.876279a28.93903 28.93903 0 1 1 0-57.87806 28.93903 28.93903 0 0 1 0 57.87806z m0-8.904317a20.034713 20.034713 0 1 0 0-40.069426 20.034713 20.034713 0 0 0 0 40.069426zM1633.897621 538.71117h-8.904317a51.026188 51.026188 0 0 0-14.660957-33.685031l6.789541-5.787806A59.894887 59.894887 0 0 1 1633.897621 538.71117z m-0.983927 13.356475a60.193182 60.193182 0 0 1-42.019471 46.520603l-2.007923-8.699517A51.288865 51.288865 0 0 0 1623.822387 552.067645h9.091307zM1389.073429 614.397863a40.069426 40.069426 0 1 1 0-80.138852 40.069426 40.069426 0 0 1 0 80.138852z m0-8.904317a31.165109 31.165109 0 1 0 0-62.330218 31.165109 31.165109 0 0 0 0 62.330218zM1324.218837 613.364962l7.257019-5.222382C1343.073728 627.870094 1364.524228 641.110814 1389.073429 641.110814c16.74902 0 32.055541-6.166239 43.778074-16.348326l5.876849 6.687142A75.392851 75.392851 0 0 1 1389.073429 650.01513c-27.518791 0-51.60942-14.687671-64.854592-36.650168zM1756.3765 650.01513a24.486871 24.486871 0 1 1 0-48.973742 24.486871 24.486871 0 0 1 0 48.973742z m0-8.904316a15.582554 15.582554 0 1 0 0-31.165109 15.582554 15.582554 0 0 0 0 31.165109zM1706.093822 649.409637l8.183067-3.535014A46.747663 46.747663 0 0 0 1756.3765 672.275923c4.309689 0 8.485814-0.583233 12.448235-1.674012l2.689103 8.494718a55.696502 55.696502 0 0 1-15.137338 2.08361c-22.189558 0-41.342743-12.982494-50.282678-31.770602z" p-id="23152" fill="#cfd6de"></path><path d="M133.239745 449.668001H28.93903A24.486871 24.486871 0 0 1 4.452158 425.18113v-4.452159A24.486871 24.486871 0 0 1 28.93903 396.2421h104.300715v-22.260792H104.625723a24.486871 24.486871 0 0 1-24.486871-24.486871v-4.452159a24.486871 24.486871 0 0 1 24.486871-24.486871h28.614022v-16.228118h267.913086v81.340935H231.369769v100.707823h145.897232v81.340935h-145.897232v107.809016h177.525365V756.866933H133.244197v-307.198932z" p-id="23153" fill="#cfd6de"></path><path d="M356.172674 316.103248m20.034713 0l0 0q20.034713 0 20.034713 20.034713l0 17.808634q0 20.034713-20.034713 20.034713l0 0q-20.034713 0-20.034713-20.034713l0-17.808634q0-20.034713 20.034713-20.034713Z" p-id="23154" fill="#cfd6de"></path><path d="M457.690791 304.327289h147.188357c100.062261 0 156.871802 38.088215 156.871802 132.985973 0 78.758683-42.607156 115.555772-95.543319 125.884779v2.582252c23.88583 11.620133 38.733778 28.404771 60.037356 66.492986L795.320225 756.866933h-117.492461l-74.885305-147.188358c-8.387866-16.139074-20.658015-21.303578-41.31603-21.303578h-6.45563V756.866933h-97.480008V304.327289z m97.480008 81.340935v124.593653h37.442653c52.290601 0 69.075238-22.594704 69.075238-64.556297 0-41.31603-24.531393-60.037356-67.784112-60.037356h-38.733779z" p-id="23155" fill="#cfd6de"></path><path d="M831.676551 304.327289h147.188357c100.062261 0 156.871802 38.088215 156.871802 132.985973 0 78.758683-42.607156 115.555772-95.543319 125.884779v2.582252c23.88583 11.620133 38.733778 28.404771 60.037356 66.492986L1169.305985 756.866933h-117.492461l-74.885305-147.188358c-8.392319-16.139074-20.658015-21.303578-41.31603-21.303578h-6.45563V756.866933h-97.480008V304.327289z m97.480008 81.340935v124.593653h37.442653c52.290601 0 69.075238-22.594704 69.075238-64.556297 0-41.31603-24.531393-60.037356-67.784112-60.037356h-38.733779z" p-id="23156" fill="#cfd6de"></path><path d="M2209.721984 583.24611l0.774675-0.013356h124.660436a24.486871 24.486871 0 0 1 24.486871 24.486871v4.452159a24.486871 24.486871 0 0 1-24.486871 24.486871h-88.290754l19.745323 35.617268H2317.348461a24.486871 24.486871 0 0 1 24.486872 24.486871v4.452158a24.486871 24.486871 0 0 1-24.486872 24.486872h-21.116587l17.274375 31.165109h-117.492461l-74.885305-147.188358c-8.387866-16.139074-20.658015-21.303578-41.31603-21.303578h-6.45563V756.866933h-97.475557V304.327289h147.188358c100.062261 0 156.871802 38.088215 156.871802 132.985973 0 78.758683-42.607156 115.555772-95.54332 125.884779v2.582252c9.554332 4.648053 17.666165 10.12866 25.323878 17.465817z m-136.365161-197.577886v124.593653h37.442652c52.290601 0 69.075238-22.594704 69.075238-64.556297 0-41.31603-24.531393-60.037356-67.784112-60.037356h-38.733778z" p-id="23157" fill="#cfd6de"></path><path d="M943.857587 992.831329m-17.808634 0a17.808634 17.808634 0 1 0 35.617267 0 17.808634 17.808634 0 1 0-35.617267 0Z" p-id="23158" fill="#cfd6de"></path><path d="M943.857587 1023.626909V1014.531149A17.808634 17.808634 0 1 0 932.883016 1006.187805H923.11498A26.712951 26.712951 0 1 1 943.857587 1023.626909z" p-id="23159" fill="#cfd6de"></path><path d="M120.208278 868.170893m6.678237 0l0 0q6.678238 0 6.678238 6.678238l0 17.808634q0 6.678238-6.678238 6.678237l0 0q-6.678238 0-6.678237-6.678237l0-17.808634q0-6.678238 6.678237-6.678238Z" p-id="23160" fill="#cfd6de"></path><path d="M120.208278 943.857587m6.678237 0l0 0q6.678238 0 6.678238 6.678237l0 17.808634q0 6.678238-6.678238 6.678238l0 0q-6.678238 0-6.678237-6.678238l0-17.808634q0-6.678238 6.678237-6.678237Z" p-id="23161" fill="#cfd6de"></path><path d="M180.312416 914.918557m0 6.678237l0 0q0 6.678238-6.678237 6.678238l-17.808634 0q-6.678238 0-6.678238-6.678238l0 0q0-6.678238 6.678238-6.678237l17.808634 0q6.678238 0 6.678237 6.678237Z" p-id="23162" fill="#cfd6de"></path><path d="M104.625723 914.918557m0 6.678237l0 0q0 6.678238-6.678238 6.678238l-17.808633 0q-6.678238 0-6.678238-6.678238l0 0q0-6.678238 6.678238-6.678237l17.808633 0q6.678238 0 6.678238 6.678237Z" p-id="23163" fill="#cfd6de"></path><path d="M1282.221627 0m6.678238 0l0 0q6.678238 0 6.678237 6.678238l0 17.808633q0 6.678238-6.678237 6.678238l0 0q-6.678238 0-6.678238-6.678238l0-17.808633q0-6.678238 6.678238-6.678238Z" p-id="23164" fill="#cfd6de"></path><path d="M1282.221627 75.686693m6.678238 0l0 0q6.678238 0 6.678237 6.678238l0 17.808634q0 6.678238-6.678237 6.678237l0 0q-6.678238 0-6.678238-6.678237l0-17.808634q0-6.678238 6.678238-6.678238Z" p-id="23165" fill="#cfd6de"></path><path d="M1342.325766 46.747663m0 6.678238l0 0q0 6.678238-6.678238 6.678238l-17.808634 0q-6.678238 0-6.678237-6.678238l0 0q0-6.678238 6.678237-6.678238l17.808634 0q6.678238 0 6.678238 6.678238Z" p-id="23166" fill="#cfd6de"></path><path d="M1266.639073 46.747663m0 6.678238l0 0q0 6.678238-6.678238 6.678238l-17.808634 0q-6.678238 0-6.678237-6.678238l0 0q0-6.678238 6.678237-6.678238l17.808634 0q6.678238 0 6.678238 6.678238Z" p-id="23167" fill="#cfd6de"></path></svg>