<?xml version="1.0" standalone="no"?><!DOCTYPE svg PUBLIC "-//W3C//DTD SVG 1.1//EN" "http://www.w3.org/Graphics/SVG/1.1/DTD/svg11.dtd"><svg t="1594050672341" class="icon" viewBox="0 0 1024 1024" version="1.1" xmlns="http://www.w3.org/2000/svg" p-id="115340" width="800" height="800" xmlns:xlink="http://www.w3.org/1999/xlink"><defs><style type="text/css"></style></defs><path d="M255.488 718.848h424.96c3.584 0 6.656 3.072 6.656 6.656 0 3.584-3.072 6.656-6.656 6.656h-424.96c-3.584 0-6.656-3.072-6.656-6.656 0-3.584 3.072-6.656 6.656-6.656z m-139.776 39.424h192c3.584 0 6.656 3.072 6.656 6.656 0 3.584-3.072 6.656-6.656 6.656H115.712c-3.584 0-6.656-3.072-6.656-6.656 0.512-4.096 3.072-6.656 6.656-6.656z m262.656 0h478.208c3.584 0 6.656 3.072 6.656 6.656 0 3.584-3.072 6.656-6.656 6.656H378.368c-3.584 0-6.656-3.072-6.656-6.656 0-4.096 3.072-6.656 6.656-6.656z m-324.096 0h28.16c3.584 0 6.656 3.072 6.656 6.656 0 3.584-3.072 6.656-6.656 6.656h-28.16c-3.584 0-6.656-3.072-6.656-6.656 0-4.096 3.072-6.656 6.656-6.656z m649.216-39.424h18.944c3.584 0 6.656 3.072 6.656 6.656 0 3.584-3.072 6.656-6.656 6.656h-18.944c-3.584 0-6.656-3.072-6.656-6.656 0-3.584 3.072-6.656 6.656-6.656z m192.512 39.424h34.304c3.584 0 6.656 3.072 6.656 6.656 0 3.584-3.072 6.656-6.656 6.656H896c-3.584 0-6.656-3.072-6.656-6.656 0-4.096 3.072-6.656 6.656-6.656z m-212.48 61.952h70.144c3.584 0 6.656 3.072 6.656 6.656 0 3.584-3.072 6.656-6.656 6.656h-70.144c-3.584 0-6.656-3.072-6.656-6.656 0-3.584 3.072-6.656 6.656-6.656z m-29.696 0h10.24c3.584 0 6.656 3.072 6.656 6.656 0 3.584-3.072 6.656-6.656 6.656h-10.24c-3.584 0-6.656-3.072-6.656-6.656 0-3.584 3.072-6.656 6.656-6.656z m-255.488 0h111.104c3.584 0 6.656 3.072 6.656 6.656 0 3.584-3.072 6.656-6.656 6.656H398.336c-3.584 0-6.656-3.072-6.656-6.656 0-3.584 3.072-6.656 6.656-6.656z m166.4 0H634.88c3.584 0 6.656 3.072 6.656 6.656 0 3.584-3.072 6.656-6.656 6.656h-70.144c-3.584 0-6.656-3.072-6.656-6.656 0-3.584 3.072-6.656 6.656-6.656z m-352.768-101.376h18.944c3.584 0 6.656 3.072 6.656 6.656 0 3.584-3.072 6.656-6.656 6.656h-18.944c-3.584 0-6.656-3.072-6.656-6.656 0.512-3.584 3.072-6.656 6.656-6.656z m126.464 39.424h15.36c3.584 0 6.656 3.072 6.656 6.656 0 3.584-3.072 6.656-6.656 6.656h-15.36c-3.584 0-6.656-3.072-6.656-6.656 0-4.096 3.072-6.656 6.656-6.656zM99.84 366.08c-19.456 0-35.328-15.872-35.328-35.328 0-19.456 15.872-35.328 35.328-35.328s35.328 15.872 35.328 35.328c0 19.456-15.872 35.328-35.328 35.328z m0-15.872c-10.752 0-18.944-8.704-18.944-18.944s8.704-18.944 18.944-18.944c10.752 0 18.944 8.704 18.944 18.944s-8.192 18.944-18.944 18.944z m338.944-130.56c2.048 0 3.584 1.536 3.584 3.584 0 2.048-1.536 3.584-3.584 3.584h-25.6v25.6c0 2.048-1.536 3.584-3.584 3.584s-3.584-1.536-3.584-3.584v-25.6h-25.6c-2.048 0-3.584-1.536-3.584-3.584 0-2.048 1.536-3.584 3.584-3.584h25.6v-25.6c0-2.048 1.536-3.584 3.584-3.584 2.048 0 3.584 1.536 3.584 3.584v25.6h25.6zM81.408 508.928c1.536 0 2.56 1.024 2.56 2.56s-1.024 2.56-2.56 2.56h-24.064v24.064c0 1.536-1.024 2.56-2.56 2.56s-2.56-1.024-2.56-2.56v-24.064H27.648c-1.536 0-2.56-1.024-2.56-2.56s1.024-2.56 2.56-2.56h24.576v-24.064c0-1.536 1.024-2.56 2.56-2.56s2.56 1.024 2.56 2.56v24.064h24.064z m890.368-122.368c0.512 0.512 0.512 1.024 0 1.536-0.512 0.512-1.024 0.512-1.536 0l-11.264-11.264-11.264 11.264c-0.512 0.512-1.024 0.512-1.536 0-0.512-0.512-0.512-1.024 0-1.536l11.264-11.264-11.264-11.264c-0.512-0.512-0.512-1.024 0-1.536 0.512-0.512 1.024-0.512 1.536 0l11.264 11.264 11.264-11.264c0.512-0.512 1.024-0.512 1.536 0 0.512 0.512 0.512 1.024 0 1.536l-11.264 11.264 11.264 11.264z m-232.96 57.344l-8.704-8.704c-0.512-0.512-0.512-0.512 0-0.512l2.048-2.048 0.512 0.512 8.704 8.704c0.512 0.512 0.512 0.512 0 0.512-0.512 0.512-1.024 1.536-2.56 1.536 0.512 0.512 0.512 0.512 0 0z m21.504 16.384l8.704 8.704-2.048 2.048h-0.512l-3.584-3.584-4.608-4.608-0.512-0.512c1.024-0.512 1.536-1.024 2.56-2.048z m-0.512-16.384c-0.512-0.512-1.024-1.024-1.536-2.048v-0.512l8.704-8.704 2.048 2.048v0.512l-8.704 8.704c0 0.512-0.512 0.512-0.512 0z m-19.968 16.384l1.536 1.536v0.512l-8.704 8.704-2.048-2.048v-0.512l8.704-8.704c0 0.512 0 0.512 0.512 0.512z m10.24-27.136v5.12c0 0.512 0 0.512-0.512 0.512h-2.56c-0.512 0-0.512 0-0.512-0.512v-10.752c0-0.512 0-0.512 0.512-0.512h2.56c0.512 0 0.512 0 0.512 0.512v5.632z m-13.824 16.384v2.56c0 0.512 0 0.512-0.512 0.512h-10.752c-0.512 0-0.512 0-0.512-0.512v-2.56c0-0.512 0-0.512 0.512-0.512h5.632c1.536 0.512 3.584 0.512 5.632 0.512z m38.912 0v2.56c0 0.512 0 0.512-0.512 0.512h-10.752c-0.512 0-0.512 0-0.512-0.512v-2.56c0-0.512 0-0.512 0.512-0.512h5.632c1.536 0.512 3.072 0.512 5.632 0.512-0.512 0 0 0 0 0z m-25.088 22.016v5.632c0 0.512 0 0.512-0.512 0.512h-2.56c-0.512 0-0.512 0-0.512-0.512v-10.752c0-0.512 0-0.512 0.512-0.512h2.56c0.512 0 0.512 0 0.512 0.512v5.12z m227.328 64c-11.776 0-20.992-9.728-20.992-20.992 0-11.776 9.728-20.992 20.992-20.992 11.776 0 20.992 9.728 20.992 20.992 0 11.776-9.728 20.992-20.992 20.992z m0-9.216c6.656 0 11.776-5.12 11.776-11.776s-5.12-11.776-11.776-11.776c-6.656 0-11.776 5.12-11.776 11.776 0.512 6.656 5.632 11.776 11.776 11.776z m-264.192-215.552c-14.848 0-27.136-12.288-27.136-27.136s12.288-27.136 27.136-27.136 27.136 12.288 27.136 27.136-12.288 27.136-27.136 27.136z m-0.512-12.288c8.704 0 15.36-6.656 15.36-15.36s-6.656-15.36-15.36-15.36-15.36 6.656-15.36 15.36c0 8.192 6.656 15.36 15.36 15.36zM576 412.672c-68.096-28.16-145.92 4.096-174.08 72.192-28.16 68.096 4.096 145.92 72.192 174.08 68.096 28.16 145.92-4.096 174.08-72.192s-4.096-145.92-72.192-174.08z m26.624 80.896l-84.992 98.304c-3.584 4.096-10.24 5.12-14.848 1.536l-54.272-40.96c-4.608-3.584-5.632-10.24-2.048-15.36s10.24-5.632 15.36-2.048l46.08 34.816 78.336-90.624c4.096-4.608 10.752-5.12 15.36-1.024 2.048 2.048 3.584 4.608 3.584 7.168 0.512 3.072-0.512 6.144-2.56 8.192z" fill="#1eda5c" p-id="115341" data-spm-anchor-id="a313x.7781069.0.i50" class="selected"></path></svg>